<svg xmlns="http://www.w3.org/2000/svg" width="1920.242" height="1228.052" viewBox="0 0 1920.242 1228.052">
  <path id="União_4" data-name="União 4" d="M-7.758,1228.053V273.2H-8V241.264c14.175,0,22.551-4.423,33.021-9.828,12.081-6.224,25.289-13.1,47.518-13.1s35.437,6.88,47.518,13.1c10.47,5.733,18.524,9.828,33.021,9.828,14.013,0,22.55-4.423,33.021-9.828,12.081-6.224,25.772-13.1,47.517-13.1s35.438,6.88,47.518,13.1c10.152,5.558,18.031,9.577,31.714,9.816,13.436-.248,21.626-4.569,31.789-9.816,12.081-6.224,25.289-13.1,47.518-13.1s35.438,6.88,47.518,13.1c10.47,5.733,18.524,9.828,33.021,9.828,14.014,0,22.55-4.423,33.021-9.828,12.081-6.224,25.772-13.1,47.518-13.1s35.437,6.88,47.517,13.1c10.152,5.558,18.032,9.577,31.714,9.816,13.436-.248,21.626-4.569,31.79-9.816,12.081-6.224,25.289-13.1,47.517-13.1s35.438,6.88,47.518,13.1c10.47,5.733,18.524,9.828,33.021,9.828,14.014,0,22.551-4.423,33.021-9.828,12.081-6.224,25.772-13.1,47.518-13.1s35.437,6.88,47.518,13.1c10.151,5.558,18.031,9.577,31.713,9.816,13.437-.248,21.626-4.569,31.79-9.816,12.081-6.224,25.289-13.1,47.517-13.1s35.438,6.88,47.518,13.1c10.471,5.733,18.524,9.828,33.021,9.828,14.014,0,22.551-4.423,33.021-9.828,12.081-6.224,25.772-13.1,47.518-13.1s35.438,6.88,47.518,13.1c10.151,5.558,18.031,9.577,31.714,9.816,13.436-.248,21.625-4.569,31.789-9.816,12.081-6.224,25.289-13.1,47.518-13.1s35.437,6.88,47.517,13.1c10.471,5.733,18.525,9.828,33.021,9.828,14.014,0,22.551-4.423,33.021-9.828,12.082-6.224,25.772-13.1,47.518-13.1s35.438,6.88,47.518,13.1c10.151,5.558,18.031,9.577,31.714,9.816,13.436-.248,21.626-4.569,31.789-9.816,12.081-6.224,25.289-13.1,47.518-13.1s35.437,6.88,47.518,13.1c10.47,5.733,18.524,9.828,33.021,9.828,14.014,0,22.55-4.423,33.021-9.828,12.081-6.224,25.772-13.1,47.517-13.1s35.438,6.88,47.518,13.1c10.471,5.733,18.524,9.828,33.021,9.828v986.789ZM1864.724,187.213c-10.47-5.732-18.524-9.827-33.021-9.827s-22.55,4.1-33.021,9.827c-12.081,6.061-25.289,13.1-47.517,13.1s-35.437-6.879-47.518-13.1c-10.471-5.732-18.524-9.827-33.021-9.827s-22.551,4.1-33.021,9.827c-11.6,5.821-24.693,12.549-44.979,13.071v.032q-.648,0-1.286-.008c-.415.005-.832.008-1.253.008v-.031c-20.569-.5-33.369-7.09-44.979-13.073-10.47-5.732-18.524-9.827-33.021-9.827s-22.55,4.1-33.021,9.827c-12.081,6.061-25.289,13.1-47.518,13.1s-35.437-6.879-47.517-13.1c-10.471-5.732-18.525-9.827-33.021-9.827s-22.551,4.1-33.021,9.827c-11.6,5.821-24.693,12.549-44.979,13.071v.032q-.648,0-1.286-.008c-.415.005-.832.008-1.253.008v-.031c-20.569-.5-33.369-7.09-44.979-13.073-10.47-5.732-18.524-9.827-33.021-9.827s-22.551,4.1-33.021,9.827c-12.081,6.061-25.289,13.1-47.518,13.1s-35.437-6.879-47.518-13.1c-10.47-5.732-18.524-9.827-33.021-9.827s-22.55,4.1-33.021,9.827c-11.6,5.821-24.694,12.549-44.979,13.071v.032q-.648,0-1.286-.008-.621.008-1.252.008v-.031c-20.568-.5-33.369-7.09-44.979-13.073-10.471-5.732-18.524-9.827-33.021-9.827s-22.551,4.1-33.021,9.827c-12.081,6.061-25.289,13.1-47.518,13.1s-35.437-6.879-47.518-13.1c-10.47-5.732-18.524-9.827-33.021-9.827s-22.55,4.1-33.021,9.827c-11.6,5.821-24.694,12.549-44.979,13.071v.032q-.648,0-1.286-.008-.621.008-1.252.008v-.031c-20.568-.5-33.369-7.09-44.979-13.073-10.471-5.732-18.525-9.827-33.021-9.827s-22.551,4.1-33.021,9.827c-12.082,6.061-25.29,13.1-47.518,13.1s-35.437-6.879-47.518-13.1c-10.47-5.732-18.524-9.827-33.021-9.827s-22.551,4.1-33.021,9.827c-11.6,5.821-24.693,12.549-44.979,13.071v.032q-.648,0-1.286-.008c-.415.005-.832.008-1.253.008v-.031c-20.569-.5-33.369-7.09-44.979-13.073-10.47-5.732-18.524-9.827-33.021-9.827s-22.55,4.1-33.021,9.827c-12.081,6.061-25.289,13.1-47.517,13.1s-35.438-6.879-47.518-13.1c-10.471-5.732-18.524-9.827-33.021-9.827s-22.551,4.1-33.021,9.827c-12.081,6.061-25.772,13.1-47.518,13.1V168.377c14.175,0,22.551-4.586,33.021-9.827,12.081-6.061,25.289-13.1,47.518-13.1s35.437,6.879,47.518,13.1c10.47,5.733,18.524,9.827,33.021,9.827,14.013,0,22.55-4.586,33.021-9.827,12.081-6.061,25.772-13.1,47.517-13.1s35.438,6.879,47.518,13.1c10.148,5.557,18.027,9.573,31.7,9.815,13.442-.256,21.635-4.726,31.8-9.815,12.081-6.061,25.289-13.1,47.518-13.1s35.438,6.879,47.518,13.1c10.47,5.733,18.524,9.827,33.021,9.827,14.014,0,22.55-4.586,33.021-9.827,12.081-6.061,25.772-13.1,47.518-13.1s35.437,6.879,47.517,13.1c10.149,5.557,18.027,9.574,31.7,9.815,13.442-.256,21.635-4.726,31.8-9.815,12.081-6.061,25.289-13.1,47.517-13.1s35.438,6.879,47.518,13.1c10.47,5.733,18.524,9.827,33.021,9.827,14.014,0,22.551-4.586,33.021-9.827,12.081-6.061,25.772-13.1,47.518-13.1s35.437,6.879,47.518,13.1c10.148,5.557,18.026,9.574,31.7,9.815,13.442-.256,21.635-4.726,31.8-9.815,12.081-6.061,25.289-13.1,47.517-13.1s35.438,6.879,47.518,13.1c10.471,5.733,18.524,9.827,33.021,9.827,14.014,0,22.551-4.586,33.021-9.827,12.081-6.061,25.772-13.1,47.518-13.1s35.438,6.879,47.518,13.1c10.148,5.557,18.027,9.573,31.7,9.815,13.442-.256,21.634-4.726,31.8-9.815,12.081-6.061,25.289-13.1,47.518-13.1s35.437,6.879,47.517,13.1c10.471,5.733,18.525,9.827,33.021,9.827,14.014,0,22.551-4.586,33.021-9.827,12.082-6.061,25.772-13.1,47.518-13.1s35.438,6.879,47.518,13.1c10.147,5.557,18.027,9.573,31.7,9.815,13.442-.256,21.635-4.726,31.8-9.815,12.081-6.061,25.289-13.1,47.518-13.1s35.437,6.879,47.518,13.1c10.47,5.733,18.524,9.827,33.021,9.827,14.014,0,22.55-4.586,33.021-9.827,12.081-6.061,25.772-13.1,47.517-13.1s35.438,6.879,47.518,13.1c10.471,5.733,18.524,9.827,33.021,9.827v31.939C1890.174,200.316,1876.8,193.437,1864.724,187.213Zm0-72.886c-10.47-5.733-18.524-9.828-33.021-9.828-14.014,0-22.55,4.586-33.021,9.828-12.081,6.06-25.289,13.1-47.517,13.1s-35.437-6.88-47.518-13.1c-10.471-5.733-19.007-9.828-33.021-9.828s-22.551,4.586-33.021,9.828c-11.6,5.82-24.693,12.549-44.979,13.071v.032q-.648,0-1.286-.008c-.415.005-.832.008-1.253.008V127.4c-20.569-.5-33.369-7.091-44.979-13.073-10.47-5.733-18.524-9.828-33.021-9.828-14.014,0-22.55,4.586-33.021,9.828-12.081,6.06-25.289,13.1-47.518,13.1s-35.437-6.88-47.517-13.1c-10.471-5.733-19.007-9.828-33.021-9.828s-22.551,4.586-33.021,9.828c-11.6,5.82-24.693,12.549-44.979,13.071v.032q-.648,0-1.286-.008c-.415.005-.832.008-1.253.008V127.4c-20.569-.5-33.369-7.091-44.979-13.073-10.47-5.733-18.524-9.828-33.021-9.828-14.014,0-22.551,4.586-33.021,9.828-12.081,6.06-25.289,13.1-47.518,13.1s-35.437-6.88-47.518-13.1c-10.47-5.733-19.007-9.828-33.021-9.828s-22.55,4.586-33.021,9.828c-11.6,5.82-24.694,12.549-44.979,13.071v.032q-.648,0-1.286-.008-.621.008-1.252.008V127.4c-20.568-.5-33.369-7.091-44.979-13.073-10.471-5.733-18.524-9.828-33.021-9.828-14.014,0-22.551,4.586-33.021,9.828-12.081,6.06-25.289,13.1-47.518,13.1s-35.437-6.88-47.518-13.1c-10.47-5.733-19.007-9.828-33.021-9.828s-22.55,4.586-33.021,9.828c-11.6,5.82-24.694,12.549-44.979,13.071v.032q-.648,0-1.286-.008-.621.008-1.252.008V127.4c-20.568-.5-33.369-7.091-44.979-13.073-10.471-5.733-18.525-9.828-33.021-9.828-14.014,0-22.551,4.586-33.021,9.828-12.082,6.06-25.29,13.1-47.518,13.1s-35.437-6.88-47.518-13.1c-10.47-5.733-19.007-9.828-33.021-9.828s-22.551,4.586-33.021,9.828c-11.6,5.82-24.693,12.549-44.979,13.071v.032q-.648,0-1.286-.008c-.415.005-.832.008-1.253.008V127.4c-20.569-.5-33.369-7.091-44.979-13.073-10.47-5.733-18.524-9.828-33.021-9.828-14.014,0-22.55,4.586-33.021,9.828-12.081,6.06-25.289,13.1-47.517,13.1s-35.438-6.88-47.518-13.1C95.09,108.593,86.553,104.5,72.539,104.5s-22.551,4.586-33.021,9.828c-12.081,6.06-25.772,13.1-47.518,13.1V95.49c14.5,0,22.551-4.1,33.021-9.827C37.1,79.6,50.31,72.559,72.539,72.559s35.437,6.88,47.518,13.1c10.47,5.732,18.524,9.827,33.021,9.827s22.55-4.1,33.021-9.827c12.081-6.061,25.772-13.1,47.517-13.1s35.438,6.88,47.518,13.1c10.161,5.562,18.046,9.583,31.752,9.816,13.705-.233,21.591-4.254,31.751-9.816,12.081-6.061,25.289-13.1,47.518-13.1s35.438,6.88,47.518,13.1C450.144,91.4,458.2,95.49,472.7,95.49s22.55-4.1,33.021-9.827c12.081-6.061,25.772-13.1,47.518-13.1s35.437,6.88,47.517,13.1c10.161,5.563,18.046,9.584,31.752,9.816,13.706-.232,21.591-4.253,31.752-9.816,12.081-6.061,25.289-13.1,47.517-13.1s35.438,6.88,47.518,13.1c10.47,5.732,18.524,9.827,33.021,9.827s22.551-4.1,33.021-9.827c12.081-6.061,25.772-13.1,47.518-13.1s35.437,6.88,47.518,13.1c10.161,5.563,18.045,9.584,31.751,9.816,13.706-.232,21.591-4.253,31.752-9.816,12.081-6.061,25.289-13.1,47.517-13.1s35.438,6.88,47.518,13.1c10.471,5.732,18.524,9.827,33.021,9.827s22.551-4.1,33.021-9.827c12.081-6.061,25.772-13.1,47.518-13.1s35.438,6.88,47.518,13.1c10.16,5.562,18.046,9.583,31.752,9.816,13.705-.233,21.591-4.254,31.751-9.816,12.081-6.061,25.289-13.1,47.518-13.1s35.437,6.88,47.517,13.1C1409,91.4,1417.05,95.49,1431.546,95.49s22.551-4.1,33.021-9.827c12.082-6.061,25.772-13.1,47.518-13.1s35.438,6.88,47.518,13.1c10.16,5.562,18.046,9.583,31.752,9.816,13.705-.233,21.591-4.254,31.751-9.816,12.081-6.061,25.289-13.1,47.518-13.1s35.437,6.88,47.518,13.1c10.47,5.732,18.524,9.827,33.021,9.827s22.55-4.1,33.021-9.827c12.081-6.061,25.772-13.1,47.517-13.1s35.438,6.88,47.518,13.1c10.471,5.732,18.524,9.827,33.021,9.827v31.939C1890.174,127.429,1876.8,120.55,1864.724,114.326Zm0-72.887c-10.47-5.732-18.524-9.827-33.021-9.827-14.014,0-22.55,4.586-33.021,9.827-12.081,6.061-25.289,13.1-47.517,13.1s-35.437-6.88-47.518-13.1c-10.471-5.732-18.846-9.827-33.021-9.827s-22.551,4.423-33.021,9.827c-11.6,5.821-24.693,12.55-44.979,13.072v.032q-.648,0-1.286-.008c-.415.005-.832.008-1.253.008v-.031c-20.569-.5-33.369-7.091-44.979-13.073-10.47-5.732-18.524-9.827-33.021-9.827-14.014,0-22.55,4.586-33.021,9.827-12.081,6.061-25.289,13.1-47.518,13.1s-35.437-6.88-47.517-13.1c-10.471-5.732-18.846-9.827-33.021-9.827s-22.551,4.423-33.021,9.827c-11.6,5.821-24.693,12.55-44.979,13.072v.032q-.648,0-1.286-.008c-.415.005-.832.008-1.253.008v-.031c-20.569-.5-33.369-7.091-44.979-13.073-10.47-5.732-18.524-9.827-33.021-9.827-14.014,0-22.551,4.586-33.021,9.827-12.081,6.061-25.289,13.1-47.518,13.1s-35.437-6.88-47.518-13.1c-10.47-5.732-18.846-9.827-33.021-9.827s-22.55,4.423-33.021,9.827c-11.6,5.821-24.694,12.55-44.979,13.072v.032q-.648,0-1.286-.008-.621.008-1.252.008v-.031c-20.568-.5-33.369-7.091-44.979-13.073-10.471-5.732-18.524-9.827-33.021-9.827-14.014,0-22.551,4.586-33.021,9.827-12.081,6.061-25.289,13.1-47.518,13.1s-35.437-6.88-47.518-13.1c-10.47-5.732-18.846-9.827-33.021-9.827s-22.55,4.423-33.021,9.827c-11.6,5.821-24.694,12.55-44.979,13.072v.032q-.648,0-1.286-.008-.621.008-1.252.008v-.031c-20.568-.5-33.369-7.091-44.979-13.073-10.471-5.732-18.525-9.827-33.021-9.827-14.014,0-22.551,4.586-33.021,9.827-12.082,6.061-25.29,13.1-47.518,13.1s-35.437-6.88-47.518-13.1c-10.47-5.732-18.846-9.827-33.021-9.827s-22.551,4.423-33.021,9.827c-11.6,5.821-24.693,12.55-44.979,13.072v.032q-.648,0-1.286-.008c-.415.005-.832.008-1.253.008v-.031c-20.569-.5-33.369-7.091-44.979-13.073-10.47-5.732-18.524-9.827-33.021-9.827-14.014,0-22.55,4.586-33.021,9.827-12.081,6.061-25.289,13.1-47.517,13.1s-35.438-6.88-47.518-13.1c-10.471-5.732-18.846-9.827-33.021-9.827s-22.551,4.423-33.021,9.827C27.437,47.5,13.746,54.543-8,54.543V22.931c14.175,0,22.551-4.423,33.021-9.828C37.1,6.88,50.31,0,72.539,0s35.437,7.043,47.518,13.1c10.47,5.733,18.524,9.828,33.021,9.828,14.013,0,22.55-4.586,33.021-9.828C198.18,6.88,211.549,0,233.617,0s35.438,6.88,47.518,13.1c10.471,5.405,18.524,9.5,33.021,9.5v.279c12.668-.5,20.653-4.705,30.482-9.779C356.719,6.88,369.927,0,392.156,0s35.438,7.043,47.518,13.1c10.47,5.733,18.524,9.828,33.021,9.828,14.014,0,22.55-4.586,33.021-9.828C517.8,6.88,531.167,0,553.234,0s35.437,6.88,47.517,13.1c10.471,5.405,18.525,9.5,33.021,9.5v.279c12.669-.5,20.653-4.7,30.483-9.779C676.336,6.88,689.545,0,711.773,0s35.438,7.043,47.518,13.1c10.47,5.733,18.524,9.828,33.021,9.828,14.014,0,22.551-4.586,33.021-9.828C837.414,6.88,850.784,0,872.852,0s35.437,6.88,47.518,13.1c10.47,5.405,18.524,9.5,33.02,9.5v.279c12.67-.5,20.653-4.7,30.483-9.779C995.954,6.88,1009.162,0,1031.39,0s35.438,7.043,47.518,13.1c10.471,5.733,18.524,9.828,33.021,9.828,14.014,0,22.551-4.586,33.021-9.828C1157.031,6.88,1170.4,0,1192.469,0s35.438,6.88,47.518,13.1c10.47,5.405,18.524,9.5,33.021,9.5v.279c12.668-.5,20.652-4.705,30.482-9.779C1315.571,6.88,1328.779,0,1351.008,0s35.437,7.043,47.517,13.1c10.471,5.733,18.525,9.828,33.021,9.828,14.014,0,22.551-4.586,33.021-9.828C1476.649,6.88,1490.018,0,1512.086,0s35.438,6.88,47.518,13.1c10.47,5.405,18.524,9.5,33.021,9.5v.279c12.668-.5,20.653-4.705,30.482-9.779C1635.188,6.88,1648.4,0,1670.625,0s35.437,7.043,47.518,13.1c10.47,5.733,18.524,9.828,33.021,9.828,14.014,0,22.55-4.586,33.021-9.828C1796.266,6.88,1809.635,0,1831.7,0s35.438,6.88,47.518,13.1c10.471,5.405,18.524,9.5,33.021,9.5V54.543C1890.174,54.543,1876.8,47.663,1864.724,41.439Z" transform="translate(8)" fill="#fff"/>
</svg>
