<svg xmlns="http://www.w3.org/2000/svg" width="46.98" height="46.98" viewBox="0 0 46.98 46.98">
  <path id="instagram" d="M15.624,2H35.356A13.634,13.634,0,0,1,48.98,15.624V35.356A13.624,13.624,0,0,1,35.356,48.98H15.624A13.634,13.634,0,0,1,2,35.356V15.624A13.624,13.624,0,0,1,15.624,2m-.47,4.7A8.456,8.456,0,0,0,6.7,15.154V35.826a8.451,8.451,0,0,0,8.456,8.456H35.826a8.456,8.456,0,0,0,8.456-8.456V15.154A8.451,8.451,0,0,0,35.826,6.7H15.154m22.668,3.523a2.936,2.936,0,1,1-2.936,2.936,2.936,2.936,0,0,1,2.936-2.936M25.49,13.745A11.745,11.745,0,1,1,13.745,25.49,11.745,11.745,0,0,1,25.49,13.745m0,4.7a7.047,7.047,0,1,0,7.047,7.047,7.047,7.047,0,0,0-7.047-7.047Z" transform="translate(-2 -2)" fill="#fff"/>
</svg>
