<svg xmlns="http://www.w3.org/2000/svg" width="49.141" height="39.933" viewBox="0 0 49.141 39.933">
  <path id="twitter" d="M50.681,8.7A20.125,20.125,0,0,1,44.9,10.319a10.1,10.1,0,0,0,4.416-5.591,20.3,20.3,0,0,1-6.389,2.466A9.924,9.924,0,0,0,35.507,4a10.065,10.065,0,0,0-10.03,10.077,10.473,10.473,0,0,0,.258,2.3A28.644,28.644,0,0,1,4.97,5.856,10.038,10.038,0,0,0,8.094,19.268a9.966,9.966,0,0,1-4.581-1.174v.07a10.085,10.085,0,0,0,8.081,9.889,9.88,9.88,0,0,1-4.534.164,10.053,10.053,0,0,0,9.4,7A20.017,20.017,0,0,1,3.936,39.54a20.488,20.488,0,0,1-2.4-.141A28.527,28.527,0,0,0,17,43.933c18.51,0,28.681-15.362,28.681-28.681,0-.446,0-.869-.023-1.315A20.135,20.135,0,0,0,50.681,8.7Z" transform="translate(-1.54 -4)" fill="#fff"/>
</svg>
