<svg xmlns="http://www.w3.org/2000/svg" width="894.817" height="512.6" viewBox="0 0 894.817 512.6">
  <g id="Grupo_8" data-name="Grupo 8" transform="translate(-969.755 -276.55)">
    <path id="Caminho_11" data-name="Caminho 11" d="M247.686,221.993c-22.112,0-36.034,6.879-48.318,13.1-10.646,5.405-19.327,9.827-33.577,9.827-14.741,0-22.931-4.095-33.577-9.827-12.284-6.224-25.715-13.1-48.318-13.1s-36.034,6.879-48.318,13.1C24.931,240.5,16.414,244.924,2,244.924v31.939c22.112,0,36.034-6.879,48.318-13.1,10.646-5.405,19.164-9.827,33.577-9.827s22.931,4.095,33.577,9.827c12.284,6.224,25.715,13.1,48.318,13.1s36.034-6.879,48.318-13.1c10.646-5.405,19.327-9.827,33.577-9.827,14.741,0,22.931,4.095,33.577,9.827,12.284,6.224,25.879,13.1,48.318,13.1V244.924c-14.741,0-22.931-4.095-33.577-9.827C283.72,228.872,269.8,221.993,247.686,221.993Zm0-72.887c-22.112,0-36.034,7.043-48.318,13.1-10.646,5.241-19.327,9.827-33.577,9.827-14.741,0-22.931-4.095-33.577-9.827-12.284-6.224-25.715-13.1-48.318-13.1s-36.034,7.043-48.318,13.1C24.931,167.451,16.414,172.037,2,172.037v31.939c22.112,0,36.034-7.043,48.318-13.1,10.646-5.733,18.836-9.827,33.577-9.827s22.931,4.095,33.577,9.827c12.284,6.224,25.715,13.1,48.318,13.1s36.034-7.043,48.318-13.1c10.646-5.733,18.836-9.827,33.577-9.827s22.931,4.095,33.577,9.827c12.284,6.224,25.879,13.1,48.318,13.1V172.037c-14.741,0-22.931-4.095-33.577-9.827C283.72,155.985,269.8,149.106,247.686,149.106ZM296,16.763c-12.284-6.224-25.879-13.1-48.318-13.1s-36.034,6.879-48.318,13.1c-10.646,5.241-19.327,9.827-33.577,9.827-14.741,0-22.931-4.095-33.577-9.827C119.929,10.7,106.5,3.66,83.9,3.66s-36.034,6.879-48.318,13.1C24.931,22.168,16.414,26.591,2,26.591V58.2c22.112,0,36.034-7.043,48.318-13.1,10.646-5.405,19.164-9.827,33.577-9.827s22.931,4.095,33.577,9.827c12.284,6.224,25.715,13.1,48.318,13.1s36.034-7.043,48.318-13.1c10.646-5.241,19.327-9.827,33.577-9.827,14.741,0,22.931,4.095,33.577,9.827,12.284,6.224,25.879,13.1,48.318,13.1V26.263C314.84,26.263,306.651,22.168,296,16.763ZM247.686,76.219c-22.112,0-36.034,7.043-48.318,13.1-10.646,5.733-18.836,9.827-33.577,9.827s-22.931-4.095-33.577-9.827C119.929,83.1,106.5,76.219,83.9,76.219s-36.034,7.043-48.318,13.1C24.931,95.055,16.741,99.15,2,99.15v31.939c22.112,0,36.034-7.043,48.318-13.1,10.646-5.241,19.327-9.827,33.577-9.827s22.931,4.095,33.577,9.827c12.284,6.224,25.715,13.1,48.318,13.1s36.034-7.043,48.318-13.1c10.646-5.241,19.327-9.827,33.577-9.827,14.741,0,22.931,4.095,33.577,9.827,12.284,6.224,25.879,13.1,48.318,13.1V99.15c-14.741,0-22.931-4.095-33.577-9.827C283.72,83.1,269.8,76.219,247.686,76.219Z" transform="translate(1534.758 512.287)" fill="#24b6e4"/>
    <path id="Caminho_11-2" data-name="Caminho 11" d="M247.686,221.993c-22.112,0-36.034,6.879-48.318,13.1-10.646,5.405-19.327,9.827-33.577,9.827-14.741,0-22.931-4.095-33.577-9.827-12.284-6.224-25.715-13.1-48.318-13.1s-36.034,6.879-48.318,13.1C24.931,240.5,16.414,244.924,2,244.924v31.939c22.112,0,36.034-6.879,48.318-13.1,10.646-5.405,19.164-9.827,33.577-9.827s22.931,4.095,33.577,9.827c12.284,6.224,25.715,13.1,48.318,13.1s36.034-6.879,48.318-13.1c10.646-5.405,19.327-9.827,33.577-9.827,14.741,0,22.931,4.095,33.577,9.827,12.284,6.224,25.879,13.1,48.318,13.1V244.924c-14.741,0-22.931-4.095-33.577-9.827C283.72,228.872,269.8,221.993,247.686,221.993Zm0-72.887c-22.112,0-36.034,7.043-48.318,13.1-10.646,5.241-19.327,9.827-33.577,9.827-14.741,0-22.931-4.095-33.577-9.827-12.284-6.224-25.715-13.1-48.318-13.1s-36.034,7.043-48.318,13.1C24.931,167.451,16.414,172.037,2,172.037v31.939c22.112,0,36.034-7.043,48.318-13.1,10.646-5.733,18.836-9.827,33.577-9.827s22.931,4.095,33.577,9.827c12.284,6.224,25.715,13.1,48.318,13.1s36.034-7.043,48.318-13.1c10.646-5.733,18.836-9.827,33.577-9.827s22.931,4.095,33.577,9.827c12.284,6.224,25.879,13.1,48.318,13.1V172.037c-14.741,0-22.931-4.095-33.577-9.827C283.72,155.985,269.8,149.106,247.686,149.106ZM296,16.763c-12.284-6.224-25.879-13.1-48.318-13.1s-36.034,6.879-48.318,13.1c-10.646,5.241-19.327,9.827-33.577,9.827-14.741,0-22.931-4.095-33.577-9.827C119.929,10.7,106.5,3.66,83.9,3.66s-36.034,6.879-48.318,13.1C24.931,22.168,16.414,26.591,2,26.591V58.2c22.112,0,36.034-7.043,48.318-13.1,10.646-5.405,19.164-9.827,33.577-9.827s22.931,4.095,33.577,9.827c12.284,6.224,25.715,13.1,48.318,13.1s36.034-7.043,48.318-13.1c10.646-5.241,19.327-9.827,33.577-9.827,14.741,0,22.931,4.095,33.577,9.827,12.284,6.224,25.879,13.1,48.318,13.1V26.263C314.84,26.263,306.651,22.168,296,16.763ZM247.686,76.219c-22.112,0-36.034,7.043-48.318,13.1-10.646,5.733-18.836,9.827-33.577,9.827s-22.931-4.095-33.577-9.827C119.929,83.1,106.5,76.219,83.9,76.219s-36.034,7.043-48.318,13.1C24.931,95.055,16.741,99.15,2,99.15v31.939c22.112,0,36.034-7.043,48.318-13.1,10.646-5.241,19.327-9.827,33.577-9.827s22.931,4.095,33.577,9.827c12.284,6.224,25.715,13.1,48.318,13.1s36.034-7.043,48.318-13.1c10.646-5.241,19.327-9.827,33.577-9.827,14.741,0,22.931,4.095,33.577,9.827,12.284,6.224,25.879,13.1,48.318,13.1V99.15c-14.741,0-22.931-4.095-33.577-9.827C283.72,83.1,269.8,76.219,247.686,76.219Z" transform="translate(1216.758 512.287)" fill="#24b6e4"/>
    <path id="Caminho_11-3" data-name="Caminho 11" d="M206.9,221.993c-18.441,0-30.052,6.879-40.3,13.1-8.879,5.405-16.119,9.827-28,9.827-12.294,0-19.124-4.095-28-9.827-10.245-6.224-21.446-13.1-40.3-13.1S40.248,228.872,30,235.1c-8.879,5.405-15.982,9.827-28,9.827v31.939c18.441,0,30.052-6.879,40.3-13.1,8.879-5.405,15.982-9.827,28-9.827s19.124,4.095,28,9.827c10.245,6.224,21.446,13.1,40.3,13.1s30.052-6.879,40.3-13.1c8.879-5.405,16.119-9.827,28-9.827,12.294,0,19.124,4.095,28,9.827,10.245,6.224,21.583,13.1,40.3,13.1V244.924c-12.294,0-19.124-4.095-28-9.827C236.955,228.872,225.343,221.993,206.9,221.993Zm0-72.887c-18.441,0-30.052,7.043-40.3,13.1-8.879,5.241-16.119,9.827-28,9.827-12.294,0-19.124-4.095-28-9.827-10.245-6.224-21.446-13.1-40.3-13.1s-30.052,7.043-40.3,13.1c-8.879,5.241-15.982,9.827-28,9.827v31.939c18.441,0,30.052-7.043,40.3-13.1,8.879-5.733,15.709-9.827,28-9.827s19.124,4.095,28,9.827c10.245,6.224,21.446,13.1,40.3,13.1s30.052-7.043,40.3-13.1c8.879-5.733,15.709-9.827,28-9.827s19.124,4.095,28,9.827c10.245,6.224,21.583,13.1,40.3,13.1V172.037c-12.294,0-19.124-4.095-28-9.827C236.955,155.985,225.343,149.106,206.9,149.106ZM247.2,16.763c-10.245-6.224-21.583-13.1-40.3-13.1s-30.052,6.879-40.3,13.1c-8.879,5.241-16.119,9.827-28,9.827-12.294,0-19.124-4.095-28-9.827C100.353,10.7,89.152,3.66,70.3,3.66S40.248,10.539,30,16.763c-8.879,5.405-15.982,9.827-28,9.827V58.2c18.441,0,30.052-7.043,40.3-13.1,8.879-5.405,15.982-9.827,28-9.827s19.124,4.095,28,9.827c10.245,6.224,21.446,13.1,40.3,13.1s30.052-7.043,40.3-13.1c8.879-5.241,16.119-9.827,28-9.827,12.294,0,19.124,4.095,28,9.827,10.245,6.224,21.583,13.1,40.3,13.1V26.263C262.909,26.263,256.079,22.168,247.2,16.763ZM206.9,76.219c-18.441,0-30.052,7.043-40.3,13.1-8.879,5.733-15.709,9.827-28,9.827s-19.124-4.095-28-9.827c-10.245-6.224-21.446-13.1-40.3-13.1S40.248,83.262,30,89.323C21.124,95.055,14.294,99.15,2,99.15v31.939c18.441,0,30.052-7.043,40.3-13.1,8.879-5.241,16.119-9.827,28-9.827s19.124,4.095,28,9.827c10.245,6.224,21.446,13.1,40.3,13.1s30.052-7.043,40.3-13.1c8.879-5.241,16.119-9.827,28-9.827,12.294,0,19.124,4.095,28,9.827,10.245,6.224,21.583,13.1,40.3,13.1V99.15c-12.294,0-19.124-4.095-28-9.827C236.955,83.1,225.343,76.219,206.9,76.219Z" transform="translate(1246.618 513.947) rotate(90)" fill="#ebf194"/>
    <path id="Caminho_13" data-name="Caminho 13" d="M42.831,7.5A34.831,34.831,0,1,0,77.663,42.331,34.822,34.822,0,0,0,42.831,7.5Z" transform="translate(1725.955 329.569)" fill="#ded123" opacity="0.3"/>
    <path id="Caminho_14" data-name="Caminho 14" d="M19.137,30.915,31.5,18.637,15.828,3.05,3.55,15.328Z" transform="translate(1691.655 295.27)" fill="#ded123"/>
    <rect id="Retângulo_2" data-name="Retângulo 2" width="26.123" height="17.416" transform="translate(1673 363.193)" fill="#ded123"/>
    <rect id="Retângulo_3" data-name="Retângulo 3" width="17.416" height="25.688" transform="translate(1760.078 276.55)" fill="#ded123"/>
    <rect id="Retângulo_4" data-name="Retângulo 4" width="17.329" height="22.031" transform="translate(1826.77 326.232) rotate(-135)" fill="#ded123"/>
    <path id="Caminho_15" data-name="Caminho 15" d="M17.24,28.951,32.827,44.625,45.105,32.347,29.431,16.76Z" transform="translate(1797.175 400.944)" fill="#ded123"/>
    <rect id="Retângulo_5" data-name="Retângulo 5" width="26.123" height="17.416" transform="translate(1838.449 363.193)" fill="#ded123"/>
    <path id="Caminho_16" data-name="Caminho 16" d="M58.247,5.5a52.247,52.247,0,1,0,52.247,52.247A52.288,52.288,0,0,0,58.247,5.5Zm0,87.078A34.831,34.831,0,1,1,93.078,57.747,34.822,34.822,0,0,1,58.247,92.578Z" transform="translate(1710.539 314.154)" fill="#ded123"/>
    <rect id="Retângulo_6" data-name="Retângulo 6" width="17.416" height="25.688" transform="translate(1760.078 441.563)" fill="#ded123"/>
    <path id="Caminho_17" data-name="Caminho 17" d="M3.55,32.414,15.828,44.692,31.415,29.018,19.137,16.74Z" transform="translate(1691.655 400.79)" fill="#ded123"/>
    <path id="Caminho_19" data-name="Caminho 19" d="M9.033,9.1c-4.378,21.8.279,44.523,12.947,63.618L72.745,21.951A85,85,0,0,0,25.427,7.42,79.587,79.587,0,0,0,9.033,9.1Z" transform="translate(1165.025 396.278) rotate(65)" fill="#e59ad8" opacity="0.3"/>
    <path id="Caminho_20" data-name="Caminho 20" d="M35.32,5A74.239,74.239,0,0,0,10.45,9.285,105.111,105.111,0,0,1,61.121,28.566L74.068,15.619A75.688,75.688,0,0,0,35.32,5Z" transform="translate(1193.881 410.55) rotate(65)" fill="#e59ad8" opacity="0.3"/>
    <path id="Caminho_21" data-name="Caminho 21" d="M5,35.4A75.106,75.106,0,0,0,15.619,74.058L28.566,61.111A104.761,104.761,0,0,1,9.285,10.44,75.6,75.6,0,0,0,5,35.4Z" transform="translate(1133.737 388.597) rotate(65)" fill="#e59ad8" opacity="0.3"/>
    <rect id="Retângulo_7" data-name="Retângulo 7" width="18.815" height="84.855" transform="translate(1123.588 482.359) rotate(20)" fill="#e59ad8"/>
    <path id="Caminho_22" data-name="Caminho 22" d="M97.2,3A93.949,93.949,0,0,0,30.695,30.478h0l-.093.093a94.278,94.278,0,0,0,0,133.291L163.8,30.571A93.942,93.942,0,0,0,97.2,3ZM32.185,135.918A75.106,75.106,0,0,1,21.567,97.263a74.239,74.239,0,0,1,4.285-24.87,105.111,105.111,0,0,0,19.281,50.671Zm26.453-26.453C46.064,90.37,41.314,67.55,45.785,45.847a80.025,80.025,0,0,1,16.3-1.677A85.747,85.747,0,0,1,109.4,58.7ZM72.331,25.914A74.239,74.239,0,0,1,97.2,21.629a75.106,75.106,0,0,1,38.655,10.619L122.909,45.195A104.786,104.786,0,0,0,72.331,25.914Z" transform="translate(1182.8 347.439) rotate(65)" fill="#e59ad8"/>
    <path id="Caminho_24" data-name="Caminho 24" d="M111.714,44.5l-9.754-.7-1.912-9.562A35,35,0,0,0,34.64,24.87l-3.187,6.056-6.821.7A25.518,25.518,0,0,0,27.5,82.5h82.875a19.018,19.018,0,0,0,1.339-38Z" transform="translate(1521.75 345.75)" fill="#fff" opacity="0.3"/>
    <path id="Caminho_25" data-name="Caminho 25" d="M123.356,42.5a47.765,47.765,0,0,0-89.25-12.75A38.234,38.234,0,0,0,38.25,106h82.875a31.784,31.784,0,0,0,2.231-63.5ZM121.125,93.25H38.25a25.481,25.481,0,0,1-2.805-50.809l6.821-.7,3.188-6.056a34.98,34.98,0,0,1,65.407,9.307l1.912,9.563,9.754.7a19.02,19.02,0,0,1-1.4,38Z" transform="translate(1511 335)" fill="#fff"/>
  </g>
</svg>
