<svg xmlns="http://www.w3.org/2000/svg" width="344.75" height="102.701" viewBox="0 0 344.75 102.701">
  <path id="Caminho_7" data-name="Caminho 7" d="M114.021-46.02H91.537L81.092,25.494h-.435L69.053-46.02H46.568L35.4,25.494h-.58L24.23-46.02H.585l19.293,102.7h24.66l12.475-68.9h.29l12.62,68.9h24.66Zm76.591,102.7-24.8-102.7H136.65L111.7,56.681h23.209l4.207-18.713H162.18l4.207,18.713Zm-31.333-36.7H141.727l8.7-43.663h.58Zm108.794-66h-25.24L229.052,29.12h-.29L214.836-46.02H188.581l24.8,102.7h29.447Zm60.344,102.7V35.938H299.26V13.744H324.5V-5.4H299.26V-25.567h27.416V-46.02h-49.61v102.7Z" transform="translate(5.721 46.02)" fill="#fff"/>
  <path id="Caminho_2" data-name="Caminho 2" d="M0,11.715s79.486-69.151,164.76,0,169.99,0,169.99,0" transform="translate(5 38.306)" fill="none" stroke="#242424" stroke-linecap="round" stroke-linejoin="bevel" stroke-width="10"/>
</svg>
