<svg xmlns="http://www.w3.org/2000/svg" width="160" height="46.02" viewBox="0 0 160 46.02">
    <path id="Caminho_7" data-name="Caminho 7" d="M51.415-46.02H41.34L36.66-13.975h-.195l-5.2-32.045H21.19l-5,32.045h-.26L11.18-46.02H.585L9.23,0H20.28l5.59-30.875H26L31.655,0h11.05ZM85.735,0,74.62-46.02H61.555L50.375,0h10.4L62.66-8.385H73L74.88,0ZM71.695-16.445H63.83l3.9-19.565h.26Zm48.75-29.575h-11.31L102.96-12.35h-.13L96.59-46.02H84.825L95.94,0h13.195ZM147.485,0V-9.3H134.42V-19.24h11.31v-8.58H134.42v-9.035h12.285V-46.02h-22.23V0Z" transform="translate(5 46.02)" fill="#248ddd"/>
    <path id="Caminho_2" data-name="Caminho 2" d="M0-5.247s35.617-30.986,73.828,0,76.172,0,76.172,0" transform="translate(5 27.661)" fill="none" stroke="#fff" stroke-linecap="round" stroke-linejoin="bevel" stroke-width="10"/>
</svg>